<svg fill="none" xmlns="http://www.w3.org/2000/svg">
<g clip-path="url(#clip0_679_3935)">
<path d="M4.7933 10.4118C3.57265 11.6324 1.50534 11.6276 0.92799 10.0007C0.814954 9.68221 0.724577 9.35471 0.658106 9.02054C0.386703 7.65607 0.525997 6.24182 1.05837 4.95653C1.59075 3.67129 2.49229 2.57275 3.649 1.79986C4.80573 1.02697 6.16566 0.614441 7.55681 0.614441C8.94797 0.614441 10.3079 1.02697 11.4646 1.79986C12.6213 2.57275 13.5229 3.67129 14.0552 4.95657C14.5876 6.24182 14.7269 7.65607 14.4555 9.02054C14.389 9.35471 14.2987 9.68221 14.1856 10.0007C13.6082 11.6276 11.5409 11.6324 10.3203 10.4118L8.43603 8.52752C8.25601 8.3475 8.27461 8.05061 8.32427 7.80094C8.35444 7.64916 8.33895 7.49183 8.27972 7.34884C8.22049 7.20586 8.12022 7.08363 7.99154 6.99767C7.86286 6.91171 7.71157 6.8658 7.55681 6.8658C7.40205 6.8658 7.25077 6.91171 7.12209 6.99767C6.99337 7.08363 6.8931 7.20586 6.83387 7.34884C6.77464 7.49183 6.75915 7.64916 6.78935 7.80094C6.83902 8.05061 6.85758 8.3475 6.67756 8.52752L4.7933 10.4118Z" fill="url(#paint0_linear_679_3935)"/>
</g>
<defs>
<linearGradient id="paint0_linear_679_3935" x1="0.522949" y1="5.87962" x2="14.5906" y2="5.87962" gradientUnits="userSpaceOnUse">
<stop stop-color="#C026D3"/>
<stop offset="1" stop-color="#701A75"/>
</linearGradient>
<clipPath id="clip0_679_3935">
<rect width="44.9644" height="11.8543" fill="white" transform="translate(0.522949 0.614441)"/>
</clipPath>
</defs>
</svg>
