<svg  fill="none" xmlns="http://www.w3.org/2000/svg">
<path d="M3.9934 7.09544C4.30002 5.86304 5.01015 4.76862 6.01072 3.9865C7.01129 3.20437 8.24477 2.77948 9.51475 2.77948C10.7847 2.77948 12.0182 3.20437 13.0188 3.9865C14.0194 4.76862 14.7295 5.86304 15.0361 7.09544H14.5374C13.6961 7.08306 12.872 7.3345 12.1809 7.81444C12.141 7.84333 12.0993 7.86972 12.0562 7.89341H11.998C11.9549 7.86972 11.9132 7.84333 11.8733 7.81444C11.1761 7.3456 10.3549 7.09519 9.51475 7.09519C8.67455 7.09519 7.8534 7.3456 7.15617 7.81444C7.11627 7.84333 7.07463 7.86972 7.03149 7.89341H6.97331C6.93017 7.86972 6.88852 7.84333 6.84862 7.81444C6.15751 7.3345 5.33344 7.08306 4.49213 7.09544H3.9934ZM13.6397 9.7013C13.8957 9.50194 14.213 9.39762 14.5374 9.40622H15.2065V8.07212H14.5374C13.966 8.06522 13.4077 8.24306 12.9456 8.57916C12.6855 8.77088 12.371 8.87433 12.0479 8.87433C11.7248 8.87433 11.4102 8.77088 11.1502 8.57916C10.6763 8.24934 10.1128 8.0725 9.53553 8.0725C8.95821 8.0725 8.39473 8.24934 7.92089 8.57916C7.66085 8.77088 7.34627 8.87433 7.02318 8.87433C6.70008 8.87433 6.38551 8.77088 6.12547 8.57916C5.65766 8.23874 5.09135 8.06069 4.51291 8.07212H3.823V9.40622H4.49213C4.81651 9.39762 5.13383 9.50194 5.38984 9.7013C5.8628 10.0314 6.42566 10.2083 7.0024 10.2083C7.57914 10.2083 8.142 10.0314 8.61496 9.7013C8.8713 9.50256 9.18837 9.39833 9.51267 9.40622C9.83718 9.39691 10.1547 9.50131 10.4104 9.7013C10.8842 10.0312 11.4477 10.208 12.025 10.208C12.6023 10.208 13.1658 10.0312 13.6397 9.7013ZM13.6397 12.0869C13.8957 11.8875 14.213 11.7832 14.5374 11.7918H15.2065V10.4577H14.5374C13.966 10.4508 13.4077 10.6287 12.9456 10.9648C12.6855 11.1565 12.371 11.2599 12.0479 11.2599C11.7248 11.2599 11.4102 11.1565 11.1502 10.9648C10.6763 10.6349 10.1128 10.4581 9.53553 10.4581C8.95821 10.4581 8.39473 10.6349 7.92089 10.9648C7.66085 11.1565 7.34627 11.2599 7.02318 11.2599C6.70008 11.2599 6.38551 11.1565 6.12547 10.9648C5.65766 10.6244 5.09135 10.4463 4.51291 10.4577H3.823V11.7918H4.49213C4.81651 11.7832 5.13383 11.8875 5.38984 12.0869C5.8628 12.417 6.42566 12.5939 7.0024 12.5939C7.57914 12.5939 8.142 12.417 8.61496 12.0869C8.8713 11.8881 9.18837 11.7839 9.51267 11.7918C9.83718 11.7825 10.1547 11.8869 10.4104 12.0869C10.8842 12.4168 11.4477 12.5936 12.025 12.5936C12.6023 12.5936 13.1658 12.4168 13.6397 12.0869Z" fill="#0EA5E9"/>
</svg>
