<svg fill="none" xmlns="http://www.w3.org/2000/svg">
<g clip-path="url(#clip0_679_3933)">
<path d="M0.441162 8.54156C0.441162 4.68766 0.441162 2.76071 1.63841 1.56346C2.83566 0.366211 4.76261 0.366211 8.61651 0.366211C12.4704 0.366211 14.3973 0.366211 15.5946 1.56346C16.7919 2.76071 16.7919 4.68766 16.7919 8.54156C16.7919 12.3955 16.7919 14.3224 15.5946 15.5197C14.3973 16.7169 12.4704 16.7169 8.61651 16.7169C4.76261 16.7169 2.83566 16.7169 1.63841 15.5197C0.441162 14.3224 0.441162 12.3955 0.441162 8.54156Z" fill="#0C4A6E"/>
<path d="M10.2515 10.9941C10.4773 10.9941 10.6644 11.1789 10.6196 11.4002C10.5403 11.791 10.3478 12.1532 10.0617 12.4393C9.67841 12.8226 9.15854 13.038 8.61647 13.038C8.0744 13.038 7.55457 12.8226 7.17127 12.4393C6.88514 12.1532 6.69261 11.791 6.61339 11.4002C6.56851 11.1789 6.75564 10.9941 6.9814 10.9941H10.2515Z" fill="#67E8F9"/>
<path d="M11.1108 7.63265C10.8927 7.69107 10.7592 7.9192 10.8697 8.11602C10.9861 8.32318 11.1471 8.50398 11.3429 8.64431C11.6504 8.86464 12.0247 8.97157 12.4022 8.9468C12.7797 8.92207 13.1369 8.76723 13.413 8.50864C13.6891 8.25005 13.867 7.90371 13.9164 7.52866C13.9657 7.15362 13.8836 6.77306 13.6838 6.45181C13.484 6.1306 13.1791 5.88856 12.8209 5.76696C12.4627 5.64535 12.0734 5.65172 11.7194 5.78498C11.4939 5.86984 11.2916 6.00282 11.1256 6.17278C10.9678 6.33428 11.0378 6.58923 11.2333 6.70209L11.4407 6.82182C11.756 7.00393 11.6939 7.47642 11.3421 7.57068L11.1108 7.63265Z" fill="#67E8F9"/>
<path d="M6.12206 7.63265C6.34014 7.69107 6.47368 7.9192 6.36311 8.11602C6.24673 8.32318 6.08576 8.50398 5.88996 8.64431C5.58249 8.86464 5.2081 8.97157 4.83064 8.9468C4.45315 8.92207 4.09594 8.76723 3.81984 8.50864C3.54375 8.25005 3.36586 7.90371 3.31648 7.52866C3.26711 7.15362 3.3493 6.77306 3.54906 6.45181C3.74881 6.1306 4.05378 5.88856 4.41199 5.76696C4.77018 5.64535 5.15949 5.65172 5.51353 5.78498C5.73896 5.86984 5.94126 6.00282 6.1073 6.17278C6.26505 6.33428 6.19507 6.58923 5.99955 6.70209L5.79219 6.82182C5.47682 7.00393 5.53904 7.47642 5.89078 7.57068L6.12206 7.63265Z" fill="#67E8F9"/>
</g>
<defs>
<clipPath id="clip0_679_3933">
<rect width="40.468" height="16.3507" fill="white" transform="translate(0.441162 0.366211)"/>
</clipPath>
</defs>
</svg>
