<svg fill="none" xmlns="http://www.w3.org/2000/svg">
<g clip-path="url(#clip0_679_3926)">
<path d="M16.6134 7.35644C16.6134 5.64655 15.9341 4.00666 14.725 2.79758C13.5159 1.5885 11.8761 0.909241 10.1662 0.909241C8.45629 0.90924 6.81643 1.5885 5.60734 2.79758C4.39825 4.00666 3.71899 5.64655 3.71899 7.35644H5.73377C6.4014 7.35644 6.92208 6.79695 7.16662 6.1757C7.32717 5.76782 7.5708 5.39298 7.88674 5.077C8.49129 4.47246 9.31124 4.13284 10.1662 4.13284C11.0211 4.13284 11.8411 4.47246 12.4456 5.077C13.0502 5.68154 13.3898 6.50149 13.3898 7.35644H16.6134Z" fill="#0D9488"/>
<path d="M12.8992 9.82366C13.2232 9.04144 13.39 8.20308 13.39 7.35645H16.6132C16.6132 10.9171 13.7267 13.8036 10.166 13.8036C9.60841 13.8036 9.06729 13.7328 8.55127 13.5997C8.84323 13.5245 9.13021 13.4287 9.41 13.3129C10.1922 12.9888 10.9029 12.514 11.5016 11.9153C12.1003 11.3166 12.5752 10.6059 12.8992 9.82366Z" fill="#FDBA74"/>
<path d="M0.495605 7.35638C0.495605 8.20306 0.662367 9.04143 0.986368 9.82364C1.31037 10.6059 1.78527 11.3166 2.38394 11.9153C2.98262 12.5139 3.69335 12.9888 4.47556 13.3128C5.25777 13.6368 6.09613 13.8036 6.94281 13.8036C7.78944 13.8036 8.6278 13.6368 9.41002 13.3128C10.1922 12.9888 10.903 12.5139 11.5016 11.9153C12.1003 11.3166 12.5752 10.6059 12.8992 9.82364C13.2232 9.04143 13.39 8.20306 13.39 7.35638H11.3752C10.7076 7.35638 10.1869 7.91588 9.94237 8.53708C9.93543 8.55479 9.92828 8.57241 9.92101 8.59003C9.75901 8.98112 9.52157 9.33651 9.22221 9.63583C8.92289 9.93515 8.5675 10.1726 8.17641 10.3346C7.78533 10.4966 7.36614 10.58 6.94281 10.58C6.51947 10.58 6.10029 10.4966 5.7092 10.3346C5.31807 10.1726 4.96273 9.93515 4.66336 9.63583C4.36403 9.33651 4.12658 8.98112 3.96458 8.59003C3.80258 8.1989 3.7192 7.77972 3.7192 7.35638H0.495605Z" fill="#FB923C"/>
<path d="M0.496094 7.35644C0.496094 3.79574 3.38259 0.909241 6.94326 0.909241C7.50075 0.909241 8.04171 0.979996 8.55769 1.11302C7.45055 1.39823 6.42923 1.97542 5.60704 2.79758C4.39796 4.00665 3.71871 5.64655 3.71871 7.35644H0.496094Z" fill="#2DD4BF"/>
</g>
<defs>
<clipPath id="clip0_679_3926">
<rect width="48.2105" height="13.2995" fill="white" transform="translate(0.495605 0.909241)"/>
</clipPath>
</defs>
</svg>
