<svg fill="none" xmlns="http://www.w3.org/2000/svg">
<g clip-path="url(#clip0_679_3932)">
<path d="M15.0838 9.2382C17.3201 9.2382 19.133 7.42532 19.133 5.18903C19.133 2.95276 17.3201 1.13989 15.0838 1.13989C12.8476 1.13989 11.0347 2.95276 11.0347 5.18903C11.0347 7.42532 12.8476 9.2382 15.0838 9.2382Z" fill="#334155"/>
<path d="M24.1356 9.2382C26.3719 9.2382 28.1847 7.42532 28.1847 5.18903C28.1847 2.95276 26.3719 1.13989 24.1356 1.13989C21.8993 1.13989 20.0864 2.95276 20.0864 5.18903C20.0864 7.42532 21.8993 9.2382 24.1356 9.2382Z" fill="#475569"/>
<path d="M10.0812 1.13989H1.98682V9.23432H10.0812V1.13989Z" fill="#1E293B"/>
</g>
<defs>
<clipPath id="clip0_679_3932">
<rect width="33.5189" height="20.8471" fill="white" transform="translate(0.922363 0.117981)"/>
</clipPath>
</defs>
</svg>
