<svg width="30" height="19" viewBox="0 0 30 19" fill="none" xmlns="http://www.w3.org/2000/svg">
<g clip-path="url(#clip0_679_3934)">
<path d="M27.6943 2.7595C27.6943 2.78047 27.6943 2.80668 27.6889 2.82241C27.6621 3.02688 27.6621 3.23135 27.6781 3.44106C27.6889 3.49349 27.6996 3.54592 27.7425 3.58786C27.8122 3.6665 27.9194 3.65078 27.9624 3.5564C27.9838 3.50922 27.9838 3.46203 27.9731 3.41485C27.9194 3.21562 27.9087 3.00591 27.9034 2.80144C27.9034 2.79095 27.9034 2.77522 27.9034 2.7595C27.9624 2.75425 28.016 2.74901 28.0642 2.74901C28.1018 2.74377 28.134 2.73852 28.1608 2.72279C28.2412 2.68085 28.2412 2.59173 28.1554 2.54978C28.1232 2.53405 28.0803 2.52881 28.0428 2.52881C27.9087 2.53405 27.7747 2.53405 27.6406 2.53405C27.5924 2.53405 27.5441 2.5393 27.4958 2.54454C27.469 2.54978 27.4369 2.54978 27.4154 2.56551C27.3779 2.58124 27.3564 2.60745 27.3564 2.64415C27.3618 2.68085 27.3779 2.70182 27.4154 2.71755C27.4369 2.73328 27.4637 2.73852 27.4905 2.73852C27.5548 2.74377 27.6246 2.75425 27.6943 2.7595ZM29.1688 3.00067C29.1688 3.00591 29.1742 3.01115 29.1742 3.01115C29.1957 3.15271 29.2171 3.28902 29.2332 3.42533C29.2386 3.47252 29.2439 3.51446 29.2761 3.55116C29.3458 3.64029 29.4531 3.6298 29.5013 3.53543C29.5227 3.48825 29.5281 3.44106 29.5174 3.38863C29.4852 3.23135 29.4691 3.07406 29.4369 2.92202C29.4155 2.82765 29.3887 2.73852 29.3619 2.65464C29.3458 2.60221 29.3083 2.56551 29.2439 2.56027C29.1796 2.54978 29.1313 2.58124 29.1045 2.62843C29.0723 2.67036 29.0455 2.71231 29.0241 2.7595C28.9865 2.84338 28.9544 2.92727 28.9115 3.00591C28.9061 3.02688 28.9007 3.04261 28.89 3.05833C28.8847 3.04785 28.8793 3.04261 28.8793 3.04261C28.8096 2.91154 28.7452 2.78047 28.6755 2.65464C28.6648 2.64415 28.6594 2.63367 28.6541 2.62318C28.6219 2.576 28.5844 2.54978 28.5254 2.54978C28.4718 2.55502 28.4288 2.58648 28.4021 2.63367C28.3913 2.65464 28.3913 2.67036 28.386 2.69134C28.3645 2.85911 28.3377 3.02688 28.3163 3.19465C28.3055 3.28902 28.3002 3.38339 28.3002 3.47776C28.2948 3.49873 28.3002 3.52495 28.3109 3.54592C28.3216 3.58786 28.3538 3.61408 28.3967 3.61932C28.4503 3.62456 28.4878 3.60883 28.5039 3.56689C28.52 3.53543 28.5254 3.50922 28.5308 3.48301C28.5522 3.38863 28.5683 3.29951 28.5844 3.21038C28.5951 3.15795 28.6004 3.11601 28.6166 3.05833C28.6273 3.07931 28.638 3.09504 28.6487 3.11076C28.697 3.17368 28.7452 3.23659 28.8042 3.28902C28.8632 3.33096 28.9115 3.32572 28.9597 3.27853C28.9705 3.26805 28.9758 3.26281 28.9865 3.25232C29.0348 3.17892 29.0938 3.10552 29.142 3.03212C29.1528 3.02163 29.1581 3.01115 29.1688 3.00067Z" fill="#4C1D95"/>
<path d="M16.8137 2.86244C16.7764 2.96208 16.7693 3.03386 16.7865 3.09352C16.8055 3.17466 16.8548 3.20122 16.9218 3.18058C17.5516 3.02831 18.9327 3.46054 19.444 3.581C19.5646 3.6063 19.6627 3.45409 19.5804 3.31763C19.4603 3.18548 18.0799 2.61967 17.5531 2.58882C17.3467 2.57742 16.9775 2.52565 16.8137 2.86244Z" fill="#4C1D95"/>
<path d="M22.2114 1.03092C22.2785 1.0688 22.3161 1.10494 22.3346 1.14531C22.3622 1.19827 22.3476 1.23491 22.3013 1.25361C21.8849 1.45228 21.3309 2.30759 21.1073 2.60258C21.0531 2.67044 20.9281 2.631 20.9092 2.51941C20.9131 2.39323 21.4042 1.46503 21.6782 1.21222C21.7859 1.11352 21.9639 0.919844 22.2114 1.03092Z" fill="#4C1D95"/>
<path d="M18.8958 0.609877C18.9764 0.550451 19.0602 0.529627 19.103 0.568246C19.7312 1.09349 20.0643 1.92526 20.2705 2.68673C20.2783 2.70447 20.2788 2.72993 20.2726 2.75649C20.27 2.77919 20.253 2.80316 20.2261 2.82172C20.1973 2.8422 20.1726 2.84844 20.1609 2.83079C19.8856 2.46467 18.3132 1.04016 18.8958 0.609877Z" fill="#4C1D95"/>
<path d="M5.59406 9.7163C5.74461 9.60671 5.90828 9.51547 6.08148 9.44467C6.26268 9.39402 6.45583 9.4024 6.63172 9.46862C6.80757 9.53484 6.95665 9.65523 7.05631 9.81162C7.14546 9.96761 7.18033 10.1477 7.15572 10.3248C7.13111 10.5018 7.04833 10.6663 6.91982 10.7934C6.8202 10.8964 6.7071 10.9861 6.58352 11.0602C6.03275 11.4081 5.47707 11.737 4.92142 12.0849C4.80772 12.1719 4.68711 12.25 4.56073 12.3184C4.3685 12.4121 4.14881 12.4372 3.93965 12.3893C3.73049 12.3415 3.54502 12.2237 3.4153 12.0563C3.31833 11.9377 3.23649 11.8081 3.17159 11.6702C2.64518 10.5884 2.09927 9.51138 1.59236 8.41049C1.35839 7.93395 1.1683 7.38587 0.983084 6.85689C0.90295 6.70319 0.887301 6.52501 0.939471 6.36019C0.99164 6.19538 1.10751 6.05697 1.26244 5.9744C1.41736 5.89183 1.59912 5.87163 1.76905 5.91807C1.93898 5.96451 2.08369 6.07393 2.17238 6.22305C2.44501 6.57729 2.68634 6.95356 2.89376 7.34778C3.42017 8.3009 3.92222 9.25402 4.42913 10.1786C4.45865 10.2297 4.49119 10.279 4.52661 10.3263C4.90815 10.1695 5.26701 9.96438 5.59406 9.7163Z" fill="#4C1D95"/>
<path d="M11.0369 9.38385C9.83301 10.7611 7.81509 10.4132 6.80126 8.64038C6.07987 7.38224 5.95315 5.30439 7.52266 3.99383C7.8578 3.71945 8.25856 3.53254 8.68756 3.45054C9.21356 3.37681 9.74995 3.46754 10.22 3.70976C10.6901 3.95199 11.0699 4.33331 11.305 4.79924C12.1629 6.32427 12.041 8.26865 11.0369 9.38385ZM10.5495 6.17175C10.4216 5.797 10.165 5.47705 9.82324 5.26625C9.62985 5.13148 9.39485 5.06596 9.15785 5.08071C8.9208 5.09547 8.69623 5.18961 8.52185 5.34727C7.82486 5.95253 7.6786 7.38702 8.18551 8.24008C8.25014 8.37918 8.34501 8.50279 8.4636 8.60228C8.58218 8.70178 8.72157 8.77474 8.872 8.81603C9.02242 8.85736 9.18025 8.86602 9.33448 8.84145C9.4887 8.81685 9.63553 8.75962 9.76479 8.67374C10.1426 8.38731 10.4198 7.99294 10.5578 7.54542C10.6958 7.09786 10.6878 6.6194 10.5349 6.17654L10.5495 6.17175Z" fill="#4C1D95"/>
<path d="M15.9499 6.77221C15.8266 6.79812 15.6993 6.79968 15.5754 6.77674C15.4515 6.75381 15.3336 6.70693 15.2285 6.63878C15.1366 6.58736 15.0574 6.51669 14.9968 6.43178C14.9362 6.34688 14.8955 6.24992 14.8778 6.14781C14.8601 6.04574 14.8658 5.9411 14.8943 5.8414C14.9229 5.7417 14.9738 5.64944 15.0433 5.57125C15.1643 5.41412 15.336 5.30162 15.5307 5.25196C16.0389 5.10775 16.5621 5.01982 17.0904 4.98986C17.2065 4.97665 17.3241 4.98626 17.4363 5.0181C17.5486 5.04999 17.6531 5.10341 17.744 5.17536C17.8348 5.24726 17.91 5.33621 17.9652 5.43693C18.0203 5.53765 18.0544 5.64814 18.0653 5.7619C18.2176 6.32068 18.2343 6.90657 18.114 7.47279C17.6753 9.3028 16.1643 9.93186 14.4681 9.34568C13.992 9.18896 13.5745 8.89694 13.2691 8.50693C12.8617 8.03726 12.5729 7.48064 12.4258 6.88184C12.3067 6.3486 12.3198 5.79529 12.4639 5.26802C12.6081 4.74075 12.8791 4.25483 13.2544 3.85085C13.6106 3.41176 14.073 3.0662 14.5997 2.84528C14.9326 2.6659 15.3221 2.61489 15.6916 2.70231C15.7754 2.72499 15.8514 2.76918 15.9119 2.83029C15.9723 2.89141 16.015 2.96723 16.0354 3.04988C16.0558 3.13254 16.0532 3.21902 16.0278 3.30036C16.0025 3.38171 15.9554 3.45494 15.8914 3.51248C15.7697 3.62021 15.6374 3.71599 15.4966 3.79842C15.0632 4.06824 14.6861 4.41592 14.3853 4.82304C14.188 5.08649 14.0522 5.38902 13.9874 5.70929C13.9225 6.02956 13.9302 6.35984 14.01 6.67692C14.1205 7.10923 14.3658 7.49728 14.7118 7.7873C15.7841 8.74046 17.1782 7.82065 16.9345 6.51963C16.5787 6.60543 16.2667 6.69597 15.9499 6.77221Z" fill="#4C1D95"/>
<path d="M22.501 9.46006C20.9169 10.4132 19.1134 9.46006 18.7186 7.45849C18.431 6.02879 18.977 4.02718 20.8877 3.26467C21.2942 3.10593 21.7351 3.05019 22.1696 3.10264C22.6915 3.19606 23.1703 3.4473 23.5385 3.82095C23.9066 4.19458 24.1456 4.67176 24.2216 5.18526C24.5433 6.88659 23.8121 8.70233 22.501 9.46006ZM23.0518 6.25275C23.0513 5.85686 22.9081 5.47376 22.6472 5.17095C22.5078 4.98365 22.3062 4.84945 22.0769 4.7912C21.8476 4.733 21.6047 4.75433 21.3897 4.85166C20.5318 5.21383 19.9274 6.52916 20.1468 7.49663C20.1635 7.64845 20.214 7.79487 20.2946 7.92563C20.3753 8.0564 20.4842 8.16836 20.6137 8.25371C20.7432 8.33902 20.8902 8.39567 21.0445 8.41967C21.1987 8.44362 21.3565 8.43438 21.5067 8.39257C21.9601 8.23768 22.3527 7.94824 22.6297 7.56461C22.9067 7.18098 23.0543 6.72234 23.0518 6.25275Z" fill="#4C1D95"/>
<path d="M25.8234 9.86043C25.7995 10.0349 25.7058 10.1928 25.5627 10.2997C25.4196 10.4064 25.239 10.4533 25.0606 10.4299C24.8823 10.4065 24.7207 10.3148 24.6114 10.1749C24.5022 10.0351 24.4543 9.85851 24.4782 9.68409C24.5021 9.50967 24.5959 9.35168 24.7389 9.24487C24.882 9.13806 25.0626 9.09121 25.241 9.1146C25.4194 9.13798 25.581 9.22966 25.6902 9.36954C25.7994 9.50943 25.8474 9.68601 25.8234 9.86043ZM25.3994 3.43149C25.4921 3.29306 25.6281 3.18764 25.7871 3.13096C25.9461 3.07428 26.1196 3.06936 26.2816 3.11696C26.4464 3.15727 26.592 3.25169 26.694 3.38443C26.7961 3.51718 26.8483 3.68016 26.8422 3.84611C26.8207 4.11229 26.78 4.37665 26.7203 4.6372C26.5595 5.51887 26.4035 6.4005 26.2329 7.27265C26.1549 7.62055 26.0526 7.95415 25.9404 8.30679C25.9014 8.41703 25.8363 8.51665 25.7504 8.59751C25.6969 8.65833 25.6287 8.70497 25.5519 8.73313C25.4752 8.76134 25.3924 8.77013 25.3113 8.75872C25.2301 8.74732 25.1532 8.71609 25.0877 8.66794C25.0221 8.61974 24.9701 8.55618 24.9364 8.48313C24.8784 8.35208 24.8469 8.21126 24.8437 8.06852C24.8437 7.47756 24.8437 6.88187 24.8827 6.28613C24.949 5.43598 25.0793 4.59174 25.2727 3.76032C25.2954 3.64893 25.3383 3.54241 25.3994 3.44579V3.43149Z" fill="#4C1D95"/>
<path fill-rule="evenodd" clip-rule="evenodd" d="M3.53462 13.69C3.47707 13.8157 3.46129 13.9557 3.48941 14.0905C3.50812 14.2681 3.54921 14.4429 3.61176 14.6107C3.68984 14.8162 3.77721 15.0195 3.88495 15.27C3.90972 15.3276 3.93561 15.3878 3.96271 15.4511C4.10799 15.7905 4.29028 16.2242 4.53344 16.8518C4.60226 17.0301 4.66338 17.2099 4.72492 17.3909C4.74978 17.464 4.77474 17.5374 4.80028 17.6109C4.89182 17.8724 5.04935 18.1073 5.25814 18.2934C5.34681 18.3957 5.46441 18.4703 5.59628 18.5076C5.73072 18.5456 5.87371 18.5432 6.00672 18.5007C6.13973 18.4581 6.25656 18.3774 6.34203 18.2691C6.42583 18.1628 6.47566 18.0348 6.48535 17.901C6.53971 17.6405 6.52115 17.3703 6.43155 17.1192C6.28934 16.7021 6.12735 16.2844 5.94054 15.8759L5.93968 15.8741C5.63237 15.2349 5.31999 14.6002 4.99283 13.9652L4.99038 13.9608C4.89461 13.7953 4.77014 13.6475 4.62258 13.5238C4.52678 13.4134 4.39463 13.3389 4.24871 13.3132C4.09966 13.287 3.94595 13.3134 3.81501 13.3878C3.69113 13.4569 3.59294 13.5628 3.53462 13.69Z" fill="#4C1D95"/>
<path fill-rule="evenodd" clip-rule="evenodd" d="M8.22851 12.1162C7.74665 11.9942 7.24342 11.9764 6.75388 12.0641C6.37471 12.1006 6.00179 12.1861 5.74283 12.3555C5.61113 12.4418 5.50465 12.5524 5.44541 12.6931C5.38586 12.8346 5.37825 12.9964 5.42706 13.1767C5.51617 13.5069 5.63189 13.8279 5.74721 14.1479L5.76589 14.1998L5.76634 14.2009C6.11355 15.1306 6.46406 16.0572 6.81777 16.9805C6.85901 17.1261 6.91734 17.2664 6.99158 17.3988L6.99297 17.4013C7.09103 17.5658 7.21681 17.7129 7.36499 17.8365C7.4391 17.9044 7.53074 17.9514 7.63011 17.9724C7.73046 17.9936 7.83482 17.9875 7.93182 17.9546C8.02887 17.9218 8.11479 17.8635 8.18027 17.7862C8.24469 17.7101 8.28688 17.6185 8.30237 17.5209C8.3663 17.256 8.34582 16.9782 8.24363 16.7249C8.21175 16.6397 8.18673 16.5526 8.16037 16.4609C8.15158 16.4303 8.14267 16.3992 8.13326 16.3676C8.94291 16.0581 9.80439 15.642 10.1073 14.6741C10.2259 14.3396 10.2358 13.9774 10.1356 13.6371C10.0353 13.2965 9.82949 12.9946 9.54654 12.7729C9.16144 12.4627 8.71159 12.2385 8.22851 12.1162ZM6.89286 13.3035C6.9088 13.299 6.92487 13.2948 6.94097 13.2909C7.46808 13.2099 8.00736 13.3179 8.45954 13.5948C8.65882 13.7303 8.74045 13.8809 8.75447 14.0258C8.76894 14.1749 8.71347 14.3366 8.60204 14.4919C8.39148 14.7854 8.00724 15.0203 7.66016 15.0641C7.40713 14.4944 7.15018 13.9016 6.89286 13.3035Z" fill="#4C1D95"/>
<path d="M11.4409 11.0733C12.0147 10.8142 12.7255 10.7694 13.2817 10.9516C13.4218 10.9915 13.5433 11.0778 13.6256 11.1957C13.7072 11.3129 13.7449 11.4541 13.7323 11.5953C13.7315 11.687 13.7085 11.7771 13.6652 11.8585C13.6211 11.9413 13.5573 12.0125 13.4792 12.0661C13.401 12.1197 13.3108 12.1542 13.2162 12.1665C13.1215 12.1788 13.0252 12.1687 12.9354 12.1369L12.9286 12.1345L12.9222 12.1312C12.8762 12.1077 12.8274 12.09 12.777 12.0785L12.7738 12.0778C12.3825 11.9762 12.0134 12.1445 11.8786 12.3514C11.8143 12.45 11.8063 12.5496 11.8599 12.6402C11.9172 12.7372 12.0579 12.8461 12.3425 12.9236C12.4208 12.9447 12.501 12.9649 12.5824 12.9855C12.8075 13.0425 13.0414 13.1017 13.2676 13.1837L13.2684 13.1841C14.3118 13.5722 14.7004 14.3762 14.5674 15.1323C14.4358 15.8801 13.7971 16.5606 12.8366 16.7211C12.4871 16.7968 12.1234 16.7821 11.7814 16.6783C11.4386 16.5742 11.1297 16.3842 10.8852 16.1272L10.8788 16.1205C10.8016 16.0237 10.7497 15.9099 10.7267 15.7892C10.7055 15.6802 10.7167 15.5677 10.7588 15.4647C10.8006 15.3623 10.8714 15.2738 10.9628 15.2092C11.0593 15.1361 11.1756 15.0922 11.2974 15.083C11.4188 15.0739 11.5402 15.0997 11.6468 15.1571C11.7532 15.2074 11.8522 15.2716 11.9411 15.3478L11.9428 15.3492C12.1 15.4898 12.2902 15.5264 12.4726 15.4925C12.6576 15.4581 12.8316 15.351 12.9436 15.209C13.0547 15.0678 13.0994 14.9002 13.0464 14.7374C12.9931 14.5734 12.8328 14.3897 12.4807 14.2362C12.3886 14.1979 12.2932 14.1671 12.1939 14.1371C12.1671 14.129 12.1399 14.121 12.1123 14.1128C12.0389 14.091 11.9634 14.0686 11.8893 14.0438C11.8383 14.0268 11.7877 14.0107 11.7376 13.9947C11.6006 13.9511 11.4671 13.9086 11.3385 13.8516C11.0588 13.7585 10.8172 13.5797 10.6495 13.3416C10.4812 13.1027 10.3965 12.8169 10.408 12.527C10.4089 11.8205 10.864 11.3338 11.4409 11.0733Z" fill="#4C1D95"/>
<path d="M18.7159 10.998C18.6047 10.9449 18.4816 10.9197 18.3579 10.9246C18.2342 10.9296 18.1137 10.9646 18.0073 11.0265C17.9015 11.088 17.813 11.1741 17.7496 11.2771C17.6914 11.3639 17.6511 11.461 17.6311 11.5629C17.611 11.6647 17.6115 11.7693 17.6324 11.8709C17.6532 12.0015 17.6761 12.1284 17.6988 12.2536C17.7364 12.4608 17.7729 12.6634 17.7971 12.8699L17.798 12.8751C17.8528 13.199 17.8816 13.5265 17.8842 13.8548L17.8844 13.8594C17.9032 14.2139 17.7796 14.5615 17.5403 14.8284L17.5365 14.8332C17.4586 14.9307 17.3545 15.0052 17.2358 15.0483C17.1171 15.0913 16.9885 15.1012 16.8643 15.0768C16.7402 15.0525 16.6254 14.9948 16.5329 14.9103C16.4404 14.8259 16.3736 14.7175 16.3403 14.5981C16.2692 14.3465 16.228 14.0876 16.2175 13.8267L16.339 11.9356C16.3408 11.9109 16.3429 11.8856 16.3449 11.86C16.3496 11.8026 16.3543 11.7441 16.3563 11.6895C16.3591 11.6092 16.3567 11.5267 16.3375 11.4485C16.318 11.3686 16.2807 11.2926 16.2147 11.2279C16.1493 11.1639 16.061 11.1166 15.9499 11.0844C15.749 11.0276 15.5791 11.0294 15.4375 11.0881C15.2959 11.1469 15.1988 11.2559 15.1302 11.3819C15.062 11.5068 15.0183 11.6547 14.9851 11.8029C14.9606 11.9128 14.9408 12.0282 14.9221 12.138C14.9156 12.1759 14.9092 12.213 14.9028 12.2491L14.9027 12.2502C14.8023 12.8525 14.7724 13.4641 14.8136 14.0731C14.8213 14.4022 14.8915 14.7271 15.0206 15.0311C15.1663 15.4233 15.4303 15.7632 15.7776 16.0058C16.1257 16.2489 16.541 16.3828 16.9687 16.3899C17.3963 16.397 17.8161 16.2768 18.1724 16.0454C18.5281 15.8143 18.8038 15.4832 18.9629 15.0957C19.1856 14.6021 19.2902 14.0653 19.2686 13.5262C19.2555 13.1327 19.2336 12.7361 19.2118 12.3415C19.2011 12.1479 19.1904 11.9548 19.1809 11.7628C19.176 11.5704 19.1111 11.3839 18.9948 11.2285C18.9228 11.1303 18.827 11.0511 18.7159 10.998Z" fill="#4C1D95"/>
<path d="M22.654 13.9633C22.6427 13.9773 22.6308 13.9918 22.6184 14.0069C22.5279 13.4965 22.444 12.9861 22.36 12.4751C22.3299 12.2917 22.2996 12.1075 22.2691 11.9239L22.2657 11.9034L22.2546 11.8857C22.2336 11.8524 22.2315 11.8198 22.2315 11.7501V11.7421L22.2303 11.7341C22.2075 11.5902 22.141 11.4564 22.0393 11.35C21.938 11.2439 21.8063 11.1701 21.6615 11.1381C21.5169 11.1032 21.3649 11.1109 21.2248 11.1602C21.085 11.2094 20.9631 11.2977 20.8744 11.4142C20.8007 11.5036 20.7402 11.6028 20.6949 11.7088C20.5921 11.937 20.4884 12.1658 20.3844 12.3953L20.3826 12.3992C20.123 12.972 19.8617 13.5487 19.6079 14.1299L19.6071 14.1318C19.4513 14.5086 19.3227 14.9057 19.1946 15.3015C19.169 15.3805 19.1434 15.4595 19.1176 15.5383C19.0713 15.6632 19.0511 15.7959 19.0581 15.9285C19.0496 16.0473 19.0787 16.1657 19.1414 16.2679C19.2053 16.3721 19.3011 16.4541 19.4152 16.5024C19.5361 16.5542 19.6713 16.5652 19.7994 16.5337C19.9271 16.5022 20.0406 16.4301 20.1219 16.3287C20.2257 16.2038 20.3151 16.0676 20.3879 15.9233C20.6029 15.4934 20.8083 15.0582 21.0128 14.6249C21.092 14.4573 21.1689 14.3072 21.2563 14.1437C21.2623 14.1639 21.2685 14.1836 21.2748 14.2033C21.3665 14.5979 21.5213 14.9759 21.7334 15.3235C21.7735 15.3971 21.8294 15.4614 21.8973 15.5121C21.966 15.5633 22.0452 15.5993 22.1295 15.6176C22.2139 15.6359 22.3013 15.6359 22.3856 15.6178C22.4699 15.5998 22.5494 15.5638 22.6181 15.5127L22.7541 15.4132L23.8097 14.5439L23.7472 14.9328C23.6616 15.4674 23.5765 15.9976 23.4862 16.5279C23.4271 16.763 23.4272 17.0085 23.4864 17.2434C23.5121 17.3757 23.5775 17.4974 23.6743 17.5931C23.7719 17.6896 23.8969 17.7552 24.0331 17.7814C24.1693 17.8075 24.3104 17.793 24.4381 17.7397C24.5639 17.6873 24.6709 17.5996 24.7457 17.4878C24.9198 17.2767 25.0281 17.0211 25.0579 16.7514C25.1027 16.3706 25.1533 15.9846 25.2039 15.5987C25.2623 15.1539 25.3206 14.7093 25.3698 14.2732L25.37 14.2718C25.4174 13.7944 25.4404 13.315 25.4388 12.8354C25.4491 12.6838 25.4106 12.5328 25.3283 12.4038C25.2458 12.2743 25.1236 12.1736 24.9791 12.116C24.8288 12.0492 24.6606 12.0313 24.4992 12.0651C24.3388 12.0986 24.1937 12.1813 24.0848 12.301C23.8901 12.4771 23.7075 12.6655 23.538 12.865L23.5369 12.8663C23.3519 13.0917 23.1682 13.3215 22.9857 13.5498C22.8747 13.6885 22.7641 13.827 22.654 13.9633Z" fill="#4C1D95"/>
</g>
<defs>
<clipPath id="clip0_679_3934">
<rect width="28.6137" height="17.9858" fill="white" transform="translate(0.90918 0.548645)"/>
</clipPath>
</defs>
</svg>
