<svg fill="none" viewBox="0 0 18 15" xmlns="http://www.w3.org/2000/svg">
<g clip-path="url(#clip0_679_3931)">
<path d="M5.13467 13.5319L3.80518 11.2291L5.75628 7.85901L6.99611 10.0066L14.3152 10.0027L12.2383 13.5637L5.13467 13.5319Z" fill="#FDBA74"/>
<path d="M15.6222 7.71613L14.2927 10.0188L10.3986 10.0143L11.6385 7.86668L7.97559 1.53015L12.0979 1.54824L15.6222 7.71613Z" fill="#CCFBF1"/>
<path d="M5.33965 1.51794H7.99864L9.94171 4.89275L7.46184 4.89263L3.80576 11.2331L1.76025 7.65405L5.33965 1.51794Z" fill="#FB923C"/>
<path fill-rule="evenodd" clip-rule="evenodd" d="M8.32274 0.984763L8.31481 0.971008H5.02546L1.12866 7.65126L3.80361 12.3317L3.80689 12.326L4.81813 14.0775L12.5518 14.1121L15.2677 9.45528H15.2496L16.2529 7.71757L12.416 1.00272L8.32274 0.984763ZM10.8672 5.43967H10.8878L8.95417 2.08145L11.7796 2.09384L14.9914 7.71475L13.9861 9.45601L11.3516 9.4574L12.2701 7.86652L10.8672 5.43967ZM7.6529 2.06489L8.97133 4.34573L7.14586 4.34569L4.02061 9.76549L3.80743 10.1337L2.39182 7.65682L5.65378 2.06489H7.6529ZM6.38527 7.8545L7.77777 5.43959L9.60374 5.43967L11.0068 7.86685L10.088 9.4581L7.3119 9.45961L6.38527 7.8545ZM4.43806 11.2314L4.96783 10.3127L5.75564 8.95184L6.68048 10.5538L9.45621 10.5523L9.45172 10.5601L13.3543 10.5647L11.925 13.0154L5.45132 12.9864L4.43806 11.2314Z" fill="#1E293B"/>
</g>
<defs>
<clipPath id="clip0_679_3931">
<rect width="56.4099" height="14.7156" fill="white" transform="translate(0.512451 0.183716)"/>
</clipPath>
</defs>
</svg>
