<svg fill="none" viewBox="0 0 20 20"  xmlns="http://www.w3.org/2000/svg">
<g clip-path="url(#clip0_679_3925)">
<path d="M7.05011 1.28589H10.7901L9.28886 5.48116C6.64659 5.94548 4.62566 8.50188 4.62566 11.5859C4.62566 12.9771 5.03694 14.261 5.73097 15.2939H0.764893L5.30484 2.60672C5.59028 1.80899 6.28148 1.28589 7.05011 1.28589Z" fill="#7C3AED"/>
<path d="M13.1572 1.28589H9.41724L10.9121 5.46345C13.607 5.87636 15.683 8.46011 15.683 11.5859C15.683 12.9771 15.2717 14.261 14.5777 15.2939H19.4424L14.9025 2.60673C14.617 1.80899 13.9258 1.28589 13.1572 1.28589Z" fill="#4C1D95"/>
<path d="M6.38327 14.8901C5.74415 13.9799 5.36304 12.8327 5.36304 11.5858C5.36304 8.62779 7.50824 6.22986 10.1545 6.22986C12.8007 6.22986 14.9459 8.62779 14.9459 11.5858C14.9459 12.8327 14.5648 13.9799 13.9257 14.8901C12.8765 14.109 11.5703 13.6458 10.1545 13.6458C8.73865 13.6458 7.43247 14.109 6.38327 14.8901Z" fill="#4C1D95"/>
</g>
<defs>
<clipPath id="clip0_679_3925">
<rect width="57.3539" height="16.2087" fill="white" transform="translate(0.141602 0.454651)"/>
</clipPath>
</defs>
</svg>
