<svg fill="none" viewBox="0 0 25 15" xmlns="http://www.w3.org/2000/svg">
<g clip-path="url(#clip0_679_3929)">
<path d="M0.504395 7.55897C0.504395 3.88642 3.48158 0.909241 7.15412 0.909241H15.8819C19.5544 0.909241 22.5316 3.88642 22.5316 7.55897V14.2087H7.15412C3.48158 14.2087 0.504395 11.2315 0.504395 7.55897Z" fill="#4F46E5"/>
<path d="M15.8819 3.40289H7.15413C4.85879 3.40289 2.99805 5.26363 2.99805 7.55897C2.99805 9.85431 4.85879 11.7151 7.15413 11.7151H15.8819C18.1772 11.7151 20.038 9.85431 20.038 7.55897C20.038 5.26363 18.1772 3.40289 15.8819 3.40289Z" fill="#C4B5FD"/>
<path d="M7.15421 9.63704C8.30188 9.63704 9.23225 8.70667 9.23225 7.559C9.23225 6.41133 8.30188 5.48096 7.15421 5.48096C6.00654 5.48096 5.07617 6.41133 5.07617 7.559C5.07617 8.70667 6.00654 9.63704 7.15421 9.63704Z" fill="black"/>
<path d="M6.32283 7.14335C6.55237 7.14335 6.73844 6.95728 6.73844 6.72774C6.73844 6.49821 6.55237 6.31213 6.32283 6.31213C6.0933 6.31213 5.90723 6.49821 5.90723 6.72774C5.90723 6.95728 6.0933 7.14335 6.32283 7.14335Z" fill="white"/>
<path d="M16.2975 9.63704C17.4452 9.63704 18.3756 8.70667 18.3756 7.559C18.3756 6.41133 17.4452 5.48096 16.2975 5.48096C15.1499 5.48096 14.2195 6.41133 14.2195 7.559C14.2195 8.70667 15.1499 9.63704 16.2975 9.63704Z" fill="black"/>
<path d="M15.4664 7.14335C15.6959 7.14335 15.882 6.95728 15.882 6.72774C15.882 6.49821 15.6959 6.31213 15.4664 6.31213C15.2369 6.31213 15.0508 6.49821 15.0508 6.72774C15.0508 6.95728 15.2369 7.14335 15.4664 7.14335Z" fill="white"/>
</g>
<defs>
<clipPath id="clip0_679_3929">
<rect width="57.3539" height="13.2995" fill="white" transform="translate(0.504395 0.909241)"/>
</clipPath>
</defs>
</svg>
