<svg fill="none" viewBox="0 0 20 20" xmlns="http://www.w3.org/2000/svg">
<g clip-path="url(#clip0_679_3928)">
<path fill-rule="evenodd" clip-rule="evenodd" d="M11.2984 1.5478C10.6776 0.927246 9.67128 0.92745 9.05073 1.54826L3.8717 6.72942L3.86729 6.72813L3.85092 6.72988C3.85766 6.73312 3.86428 6.73632 3.87076 6.73956C2.96225 6.83473 2.57678 7.10775 2.57242 7.45835C2.57396 7.58877 2.62747 7.72962 2.72575 7.87583L2.72103 7.88057C3.54696 9.12627 7.63858 10.7695 10.5333 9.65617C8.36381 10.7409 3.25461 10.9559 1.75395 8.84977C1.42805 9.20233 1.2917 9.66565 1.34305 10.1109C1.73948 12.2959 6.17161 12.892 10.6038 9.7262L11.5629 10.6853C10.3694 11.9114 8.60653 19.0335 11.226 17.9461C11.2881 17.9039 11.3409 17.8662 11.4126 17.8119L11.5293 17.7017C11.5226 17.7033 11.5159 17.7049 11.5093 17.7065L18.5247 11.0835C19.1761 10.4685 19.1909 9.43702 18.5573 8.80368L11.2984 1.5478ZM10.5345 3.70618L10.7742 2.74708L11.014 3.70618L11.7333 3.94595L11.014 4.18573L10.7742 5.14483L10.5345 4.18573L9.81512 3.94595L10.5345 3.70618ZM7.56664 6.8371L7.72648 6.19769L7.88632 6.8371L8.36589 6.99695L7.88632 7.15679L7.72648 7.7962L7.56664 7.15679L7.08711 6.99695L7.56664 6.8371ZM13.134 12.2304L12.9741 12.8698L12.4946 13.0297L12.9741 13.1895L13.134 13.8289L13.2938 13.1895L13.7734 13.0297L13.2938 12.8698L13.134 12.2304Z" fill="#4F46E5"/>
<path fill-rule="evenodd" clip-rule="evenodd" d="M19.065 2.1825C17.5652 2.1825 16.1429 2.84868 15.1827 4.00087L11.7668 8.09997L13.7393 5.14122L10.4651 6.54443C10.0493 6.72265 9.94498 7.26439 10.2648 7.58428L11.3185 8.63789L10.7805 9.28345L11.964 10.4669L12.6096 9.92898L13.6632 10.9826C13.9831 11.3025 14.5248 11.1982 14.703 10.7824L16.1062 7.50823L13.1475 9.4807L17.2466 6.06478C18.3988 5.10464 19.065 3.68231 19.065 2.1825ZM15.8104 5.43717C16.1372 5.76396 16.6671 5.76396 16.9939 5.43717C17.3207 5.11034 17.3207 4.58048 16.9939 4.25369C16.6671 3.92686 16.1372 3.92686 15.8104 4.25369C15.4836 4.58048 15.4836 5.11034 15.8104 5.43717Z" fill="#A78BFA"/>
<path opacity="0.6" d="M1.71606 8.79462C2.49968 11.4794 7.26388 11.3394 10.5325 9.65655C8.34379 10.7503 3.16613 10.9591 1.71606 8.79462Z" fill="#64748B"/>
<path opacity="0.6" d="M11.2261 17.9461C9.01893 18.8623 9.92329 13.9497 10.9766 11.6472C10.2088 13.6938 9.5534 18.2052 11.5295 17.7017L11.4127 17.8119C11.341 17.8662 11.2883 17.9039 11.2261 17.9461Z" fill="#64748B"/>
</g>
<defs>
<clipPath id="clip0_679_3928">
<rect width="60.2631" height="19.118" fill="white" transform="translate(0.241455)"/>
</clipPath>
</defs>
</svg>
