<svg width="144" height="144" viewBox="0 0 145 144" fill="none" xmlns="http://www.w3.org/2000/svg">
<g opacity="0.5">
<rect x="0.5" width="144" height="144" rx="72" fill="#121619" fill-opacity="0.75"/>
<path d="M99.78 74.092C100.061 73.6512 100.25 73.1585 100.337 72.6432C100.424 72.1278 100.406 71.6003 100.285 71.0918C100.164 70.5834 99.9428 70.1044 99.6334 69.6832C99.3239 69.2621 98.9331 68.9073 98.484 68.64L58.796 44.512C58.1506 44.1213 57.4104 43.9152 56.656 43.916C54.416 43.916 52.604 45.688 52.604 47.876V96.12C52.604 96.86 52.816 97.584 53.216 98.212C54.4 100.068 56.896 100.636 58.796 99.48L98.484 75.356C99.008 75.036 99.456 74.6 99.784 74.088L99.78 74.092ZM102.764 82.08L63.08 106.204C57.38 109.672 49.88 107.964 46.336 102.4C45.1378 100.525 44.5008 98.3456 44.5 96.12V47.88C44.5 41.316 49.94 36 56.66 36C58.928 36 61.152 36.62 63.08 37.792L102.764 61.92C108.464 65.384 110.212 72.704 106.664 78.272C105.68 79.816 104.344 81.12 102.764 82.08Z" fill="white"/>
</g>
</svg>
