<svg width="65" height="65" viewBox="0 0 65 65" fill="none" xmlns="http://www.w3.org/2000/svg">
<path d="M12.8598 39.4054L15.6305 33.5307C15.9862 32.7766 17.0137 32.7766 17.3694 33.5307L20.14 39.4054L26.3362 40.3534C27.1311 40.475 27.4479 41.4976 26.8724 42.0846L22.3898 46.6542L23.4477 53.1099C23.5836 53.939 22.7521 54.571 22.0407 54.1795L16.4999 51.1299L10.9591 54.1795C10.2478 54.571 9.41626 53.939 9.55213 53.1099L10.6101 46.6542L6.12738 42.0846C5.55184 41.4976 5.86869 40.475 6.66368 40.3534L12.8598 39.4054Z" stroke="#475569" stroke-width="1.5" stroke-linecap="round" stroke-linejoin="round"/>
<path d="M44.8599 39.4054L47.6308 33.5307C47.9863 32.7766 49.014 32.7766 49.3695 33.5307L52.1404 39.4054L58.3364 40.3534C59.1313 40.475 59.4481 41.4976 58.8727 42.0846L54.39 46.6542L55.4479 53.1099C55.5839 53.939 54.7524 54.571 54.0409 54.1795L48.5001 51.1299L42.9593 54.1795C42.2479 54.571 41.4164 53.939 41.5524 53.1099L42.6103 46.6542L38.1276 42.0846C37.5521 41.4976 37.8689 40.475 38.6639 40.3534L44.8599 39.4054Z" stroke="#475569" stroke-width="1.5" stroke-linecap="round" stroke-linejoin="round"/>
<path d="M28.8596 15.4055L31.6306 9.53071C31.986 8.77655 33.0138 8.77655 33.3692 9.53071L36.1402 15.4055L42.3362 16.3533C43.1311 16.4749 43.4479 17.4977 42.8724 18.0844L38.3898 22.6541L39.4476 29.1099C39.5836 29.9389 38.7522 30.571 38.0407 30.1795L32.4999 27.1298L26.9591 30.1795C26.2478 30.571 25.4163 29.9389 25.5521 29.1099L26.61 22.6541L22.1274 18.0844C21.5518 17.4977 21.8687 16.4749 22.6637 16.3533L28.8596 15.4055Z" stroke="#475569" stroke-width="1.5" stroke-linecap="round" stroke-linejoin="round"/>
</svg>
