<svg viewBox="0 0 9 15" xmlns="http://www.w3.org/2000/svg">
<path d="M2.75705 7.5L7.70705 12.45C7.80256 12.5422 7.87874 12.6526 7.93115 12.7746C7.98356 12.8966 8.01115 13.0278 8.0123 13.1606C8.01345 13.2934 7.98815 13.4251 7.93787 13.548C7.88759 13.6708 7.81334 13.7825 7.71944 13.8764C7.62555 13.9703 7.5139 14.0445 7.391 14.0948C7.26811 14.1451 7.13643 14.1704 7.00365 14.1692C6.87087 14.1681 6.73965 14.1405 6.61764 14.0881C6.49564 14.0357 6.3853 13.9595 6.29305 13.864L0.636048 8.207C0.448577 8.01947 0.343262 7.76516 0.343262 7.5C0.343262 7.23483 0.448577 6.98053 0.636048 6.793L6.29305 1.136C6.48165 0.953839 6.73425 0.853045 6.99645 0.855323C7.25865 0.857602 7.50946 0.962771 7.69487 1.14818C7.88027 1.33359 7.98544 1.5844 7.98772 1.8466C7.99 2.10879 7.88921 2.3614 7.70705 2.55L2.75705 7.5Z"/>
</svg>
